<svg xmlns="http://www.w3.org/2000/svg" xmlns:xlink="http://www.w3.org/1999/xlink" width="500" zoomAndPan="magnify" viewBox="0 0 375 374.999991" height="500" preserveAspectRatio="xMidYMid meet" version="1.0"><defs><g/><clipPath id="3d101112cb"><path d="M 49 184 L 114 184 L 114 217.265625 L 49 217.265625 Z M 49 184 " clip-rule="nonzero"/></clipPath><clipPath id="e4282fa2e2"><path d="M 34 112.265625 L 340 112.265625 L 340 214 L 34 214 Z M 34 112.265625 " clip-rule="nonzero"/></clipPath><clipPath id="86d794aed9"><path d="M 21.351562 144 L 62 144 L 62 164 L 21.351562 164 Z M 21.351562 144 " clip-rule="nonzero"/></clipPath><clipPath id="10876350f5"><path d="M 259 184 L 324 184 L 324 217.265625 L 259 217.265625 Z M 259 184 " clip-rule="nonzero"/></clipPath><clipPath id="ef7a3472e1"><path d="M 163 97 L 203.335938 97 L 203.335938 140.375 L 163 140.375 Z M 163 97 " clip-rule="nonzero"/></clipPath><clipPath id="07b47be635"><path d="M 156.085938 83 L 179 83 L 179 109 L 156.085938 109 Z M 156.085938 83 " clip-rule="nonzero"/></clipPath><clipPath id="7c5a1d455d"><path d="M 181 82.625 L 190 82.625 L 190 91 L 181 91 Z M 181 82.625 " clip-rule="nonzero"/></clipPath></defs><g clip-path="url(#3d101112cb)"><path fill="#004aad" d="M 49.761719 184.945312 L 62.332031 212.941406 L 91.949219 217.132812 L 113.851562 209.898438 Z M 49.761719 184.945312 " fill-opacity="1" fill-rule="nonzero"/></g><g clip-path="url(#e4282fa2e2)"><path fill="#004aad" d="M 316.925781 213.242188 L 333.324219 179.355469 L 303.742188 160.183594 L 186.671875 162.09375 L 69.597656 160.183594 L 40.015625 179.355469 L 56.414062 213.242188 L 34.335938 177.230469 L 61.757812 158.660156 L 92.902344 122.664062 C 94.320312 120.828125 97.101562 117.722656 101.597656 115.363281 C 105.410156 113.363281 108.941406 112.6875 111.273438 112.445312 C 111.714844 112.398438 112.160156 112.378906 112.605469 112.378906 L 260.734375 112.378906 C 261.179688 112.378906 261.625 112.398438 262.070312 112.445312 C 264.398438 112.6875 267.933594 113.363281 271.742188 115.363281 C 276.238281 117.722656 279.019531 120.828125 280.4375 122.664062 L 311.582031 158.660156 L 339.003906 177.230469 Z M 316.925781 213.242188 " fill-opacity="1" fill-rule="nonzero"/></g><g clip-path="url(#86d794aed9)"><path fill="#004aad" d="M 61.761719 158.660156 L 53.21875 145.585938 L 32.652344 144.949219 L 21.351562 156.757812 L 33.03125 160.820312 L 52.078125 160.820312 L 54.011719 163.910156 Z M 61.761719 158.660156 " fill-opacity="1" fill-rule="nonzero"/></g><path fill="#004aad" d="M 54.011719 163.910156 L 61.761719 158.660156 L 53.21875 145.585938 " fill-opacity="1" fill-rule="nonzero"/><g clip-path="url(#10876350f5)"><path fill="#004aad" d="M 323.578125 184.945312 L 311.011719 212.941406 L 281.394531 217.132812 L 259.488281 209.898438 Z M 323.578125 184.945312 " fill-opacity="1" fill-rule="nonzero"/></g><path fill="#004aad" d="M 311.582031 158.660156 L 320.121094 145.585938 L 340.691406 144.949219 L 351.992188 156.757812 L 340.308594 160.820312 L 321.261719 160.820312 L 319.332031 163.910156 Z M 311.582031 158.660156 " fill-opacity="1" fill-rule="nonzero"/><path fill="#004aad" d="M 319.332031 163.910156 L 311.582031 158.660156 L 320.121094 145.585938 " fill-opacity="1" fill-rule="nonzero"/><path fill="#004aad" d="M 121.597656 210.339844 C 164.769531 208.183594 208.574219 208.167969 251.742188 210.339844 C 208.574219 212.511719 164.769531 212.492188 121.597656 210.339844 Z M 121.597656 210.339844 " fill-opacity="1" fill-rule="nonzero"/><g clip-path="url(#ef7a3472e1)"><path fill="#ffffff" d="M 183.636719 97.632812 L 183.574219 97.632812 C 183.269531 115.695312 180.78125 118.511719 163.285156 118.902344 L 163.285156 119.003906 C 180.875 119.398438 183.296875 122.242188 183.582031 140.574219 L 183.632812 140.574219 C 183.914062 122.359375 186.304688 119.4375 203.589844 119.011719 L 203.589844 118.894531 C 186.398438 118.472656 183.941406 115.582031 183.636719 97.632812 " fill-opacity="1" fill-rule="nonzero"/></g><g clip-path="url(#07b47be635)"><path fill="#ffffff" d="M 167.59375 83.832031 L 167.558594 83.832031 C 167.386719 94.023438 165.984375 95.613281 156.109375 95.832031 L 156.109375 95.890625 C 166.035156 96.113281 167.402344 97.71875 167.5625 108.058594 L 167.589844 108.058594 C 167.75 97.785156 169.101562 96.132812 178.851562 95.894531 L 178.851562 95.828125 C 169.152344 95.589844 167.765625 93.957031 167.59375 83.832031 " fill-opacity="1" fill-rule="nonzero"/></g><path fill="#ffffff" d="M 196.742188 95.070312 L 196.726562 95.070312 C 196.632812 100.535156 195.878906 101.386719 190.585938 101.503906 L 190.585938 101.535156 C 195.910156 101.65625 196.640625 102.515625 196.726562 108.058594 L 196.742188 108.058594 C 196.828125 102.550781 197.550781 101.664062 202.78125 101.539062 L 202.78125 101.503906 C 197.578125 101.375 196.835938 100.5 196.742188 95.070312 " fill-opacity="1" fill-rule="nonzero"/><g clip-path="url(#7c5a1d455d)"><path fill="#ffffff" d="M 185.382812 82.625 L 185.371094 82.625 C 185.3125 85.980469 184.851562 86.503906 181.601562 86.574219 L 181.601562 86.59375 C 184.867188 86.667969 185.316406 87.195312 185.371094 90.597656 L 185.378906 90.597656 C 185.433594 87.21875 185.875 86.675781 189.085938 86.597656 L 189.085938 86.574219 C 185.894531 86.496094 185.4375 85.957031 185.382812 82.625 " fill-opacity="1" fill-rule="nonzero"/></g><g fill="#004aad" fill-opacity="1"><g transform="translate(22.411397, 281.348281)"><g><path d="M 12.984375 0.421875 C 8.796875 0.421875 5.769531 -0.613281 3.90625 -2.6875 C 2.050781 -4.757812 1.125 -8.101562 1.125 -12.71875 L 1.125 -17.234375 L 10.203125 -17.234375 L 10.203125 -11.484375 C 10.203125 -9.191406 10.929688 -8.046875 12.390625 -8.046875 C 13.210938 -8.046875 13.785156 -8.285156 14.109375 -8.765625 C 14.429688 -9.253906 14.59375 -10.070312 14.59375 -11.21875 C 14.59375 -12.71875 14.414062 -13.957031 14.0625 -14.9375 C 13.707031 -15.925781 13.25 -16.75 12.6875 -17.40625 C 12.132812 -18.070312 11.144531 -19.101562 9.71875 -20.5 L 5.75 -24.46875 C 2.664062 -27.476562 1.125 -30.804688 1.125 -34.453125 C 1.125 -38.390625 2.023438 -41.382812 3.828125 -43.4375 C 5.640625 -45.5 8.28125 -46.53125 11.75 -46.53125 C 15.90625 -46.53125 18.894531 -45.429688 20.71875 -43.234375 C 22.539062 -41.035156 23.453125 -37.59375 23.453125 -32.90625 L 14.0625 -32.90625 L 14.015625 -36.0625 C 14.015625 -36.675781 13.84375 -37.160156 13.5 -37.515625 C 13.15625 -37.867188 12.679688 -38.046875 12.078125 -38.046875 C 11.359375 -38.046875 10.816406 -37.847656 10.453125 -37.453125 C 10.097656 -37.066406 9.921875 -36.535156 9.921875 -35.859375 C 9.921875 -34.347656 10.78125 -32.789062 12.5 -31.1875 L 17.875 -26.03125 C 19.125 -24.8125 20.160156 -23.65625 20.984375 -22.5625 C 21.804688 -21.476562 22.46875 -20.191406 22.96875 -18.703125 C 23.46875 -17.222656 23.71875 -15.460938 23.71875 -13.421875 C 23.71875 -8.878906 22.882812 -5.4375 21.21875 -3.09375 C 19.5625 -0.75 16.816406 0.421875 12.984375 0.421875 Z M 12.984375 0.421875 "/></g></g></g><g fill="#004aad" fill-opacity="1"><g transform="translate(59.391336, 281.348281)"><g><path d="M 9.34375 0.53125 C 6.582031 0.53125 4.484375 -0.445312 3.046875 -2.40625 C 1.617188 -4.375 0.90625 -6.9375 0.90625 -10.09375 C 0.90625 -13.59375 1.40625 -16.40625 2.40625 -18.53125 C 3.414062 -20.664062 4.992188 -22.539062 7.140625 -24.15625 C 5.390625 -27.59375 4.515625 -30.5625 4.515625 -33.0625 C 4.515625 -35.675781 5.363281 -37.722656 7.0625 -39.203125 C 8.757812 -40.691406 10.945312 -41.4375 13.625 -41.4375 C 16.28125 -41.4375 18.457031 -40.726562 20.15625 -39.3125 C 21.851562 -37.894531 22.703125 -35.921875 22.703125 -33.390625 C 22.703125 -29.660156 20.644531 -26.171875 16.53125 -22.921875 L 18.1875 -19 C 19.195312 -21.644531 20.703125 -23.703125 22.703125 -25.171875 L 26.359375 -19.484375 C 24.242188 -17.835938 22.523438 -15.117188 21.203125 -11.328125 L 25.875 0 L 16.953125 0 L 16 -2.515625 C 15.238281 -1.628906 14.273438 -0.898438 13.109375 -0.328125 C 11.953125 0.242188 10.695312 0.53125 9.34375 0.53125 Z M 14.59375 -29.578125 C 14.957031 -29.960938 15.28125 -30.519531 15.5625 -31.25 C 15.851562 -31.988281 16 -32.703125 16 -33.390625 C 16 -34.460938 15.476562 -35 14.4375 -35 C 14.007812 -35 13.671875 -34.84375 13.421875 -34.53125 C 13.171875 -34.226562 13.046875 -33.847656 13.046875 -33.390625 C 13.046875 -32.453125 13.421875 -31.019531 14.171875 -29.09375 Z M 10.78125 -6.171875 C 11.46875 -6.171875 12.039062 -6.429688 12.5 -6.953125 C 12.96875 -7.472656 13.273438 -8.070312 13.421875 -8.75 L 10.25 -16.375 L 9.921875 -15.890625 C 9.640625 -15.460938 9.410156 -14.78125 9.234375 -13.84375 C 9.054688 -12.914062 8.96875 -12.003906 8.96875 -11.109375 L 8.96875 -10.84375 C 8.96875 -9.445312 9.070312 -8.316406 9.28125 -7.453125 C 9.5 -6.597656 10 -6.171875 10.78125 -6.171875 Z M 10.78125 -6.171875 "/></g></g></g><g fill="#004aad" fill-opacity="1"><g transform="translate(98.732601, 281.348281)"><g><path d="M 12.984375 0.421875 C 8.796875 0.421875 5.769531 -0.613281 3.90625 -2.6875 C 2.050781 -4.757812 1.125 -8.101562 1.125 -12.71875 L 1.125 -17.234375 L 10.203125 -17.234375 L 10.203125 -11.484375 C 10.203125 -9.191406 10.929688 -8.046875 12.390625 -8.046875 C 13.210938 -8.046875 13.785156 -8.285156 14.109375 -8.765625 C 14.429688 -9.253906 14.59375 -10.070312 14.59375 -11.21875 C 14.59375 -12.71875 14.414062 -13.957031 14.0625 -14.9375 C 13.707031 -15.925781 13.25 -16.75 12.6875 -17.40625 C 12.132812 -18.070312 11.144531 -19.101562 9.71875 -20.5 L 5.75 -24.46875 C 2.664062 -27.476562 1.125 -30.804688 1.125 -34.453125 C 1.125 -38.390625 2.023438 -41.382812 3.828125 -43.4375 C 5.640625 -45.5 8.28125 -46.53125 11.75 -46.53125 C 15.90625 -46.53125 18.894531 -45.429688 20.71875 -43.234375 C 22.539062 -41.035156 23.453125 -37.59375 23.453125 -32.90625 L 14.0625 -32.90625 L 14.015625 -36.0625 C 14.015625 -36.675781 13.84375 -37.160156 13.5 -37.515625 C 13.15625 -37.867188 12.679688 -38.046875 12.078125 -38.046875 C 11.359375 -38.046875 10.816406 -37.847656 10.453125 -37.453125 C 10.097656 -37.066406 9.921875 -36.535156 9.921875 -35.859375 C 9.921875 -34.347656 10.78125 -32.789062 12.5 -31.1875 L 17.875 -26.03125 C 19.125 -24.8125 20.160156 -23.65625 20.984375 -22.5625 C 21.804688 -21.476562 22.46875 -20.191406 22.96875 -18.703125 C 23.46875 -17.222656 23.71875 -15.460938 23.71875 -13.421875 C 23.71875 -8.878906 22.882812 -5.4375 21.21875 -3.09375 C 19.5625 -0.75 16.816406 0.421875 12.984375 0.421875 Z M 12.984375 0.421875 "/></g></g></g><g fill="#004aad" fill-opacity="1"><g transform="translate(135.712543, 281.348281)"><g/></g></g><g fill="#ffffff" fill-opacity="1"><g transform="translate(160.525324, 281.348281)"><g><path d="M 6.015625 0 L 6.015625 -37.25 L 0.53125 -37.25 L 0.53125 -46.109375 L 20.71875 -46.109375 L 20.71875 -37.25 L 15.25 -37.25 L 15.25 0 Z M 6.015625 0 "/></g></g></g><g fill="#ffffff" fill-opacity="1"><g transform="translate(194.016977, 281.348281)"><g><path d="M 12.71875 0.421875 C 8.925781 0.421875 6.109375 -0.648438 4.265625 -2.796875 C 2.421875 -4.941406 1.5 -8.125 1.5 -12.34375 L 1.5 -46.109375 L 10.46875 -46.109375 L 10.46875 -12.71875 C 10.46875 -11.25 10.609375 -10.101562 10.890625 -9.28125 C 11.179688 -8.457031 11.789062 -8.046875 12.71875 -8.046875 C 13.644531 -8.046875 14.25 -8.445312 14.53125 -9.25 C 14.820312 -10.0625 14.96875 -11.21875 14.96875 -12.71875 L 14.96875 -46.109375 L 23.9375 -46.109375 L 23.9375 -12.34375 C 23.9375 -8.125 23.015625 -4.941406 21.171875 -2.796875 C 19.328125 -0.648438 16.507812 0.421875 12.71875 0.421875 Z M 12.71875 0.421875 "/></g></g></g><g fill="#ffffff" fill-opacity="1"><g transform="translate(231.694586, 281.348281)"><g><path d="M 2.046875 0 L 2.046875 -46.109375 L 11.546875 -46.109375 L 15.78125 -24.046875 L 15.78125 -46.109375 L 24.6875 -46.109375 L 24.6875 0 L 15.671875 0 L 11.0625 -23.078125 L 11.0625 0 Z M 2.046875 0 "/></g></g></g><g fill="#ffffff" fill-opacity="1"><g transform="translate(270.660179, 281.348281)"><g><path d="M 1.609375 0 L 1.609375 -46.109375 L 10.515625 -46.109375 L 10.515625 0 Z M 1.609375 0 "/></g></g></g><g fill="#ffffff" fill-opacity="1"><g transform="translate(295.082265, 281.348281)"><g><path d="M 2.046875 0 L 2.046875 -46.109375 L 11.546875 -46.109375 L 15.78125 -24.046875 L 15.78125 -46.109375 L 24.6875 -46.109375 L 24.6875 0 L 15.671875 0 L 11.0625 -23.078125 L 11.0625 0 Z M 2.046875 0 "/></g></g></g><g fill="#ffffff" fill-opacity="1"><g transform="translate(334.047852, 281.348281)"><g><path d="M 11.546875 0.421875 C 8.210938 0.421875 5.726562 -0.75 4.09375 -3.09375 C 2.46875 -5.4375 1.65625 -8.984375 1.65625 -13.734375 L 1.65625 -33.59375 C 1.65625 -37.851562 2.601562 -41.070312 4.5 -43.25 C 6.40625 -45.4375 9.234375 -46.53125 12.984375 -46.53125 C 16.023438 -46.53125 18.382812 -45.921875 20.0625 -44.703125 C 21.75 -43.492188 22.914062 -41.722656 23.5625 -39.390625 C 24.207031 -37.066406 24.53125 -34.082031 24.53125 -30.4375 L 15.515625 -30.4375 L 15.515625 -34.5625 C 15.515625 -35.675781 15.359375 -36.535156 15.046875 -37.140625 C 14.742188 -37.742188 14.203125 -38.046875 13.421875 -38.046875 C 11.660156 -38.046875 10.78125 -36.90625 10.78125 -34.625 L 10.78125 -12.296875 C 10.78125 -10.898438 10.957031 -9.84375 11.3125 -9.125 C 11.675781 -8.40625 12.304688 -8.046875 13.203125 -8.046875 C 14.097656 -8.046875 14.722656 -8.40625 15.078125 -9.125 C 15.441406 -9.84375 15.625 -10.898438 15.625 -12.296875 L 15.625 -18.890625 L 13.15625 -18.890625 L 13.15625 -26.828125 L 24.421875 -26.828125 L 24.421875 0 L 20.71875 0 L 19.15625 -3.859375 C 17.507812 -1.003906 14.972656 0.421875 11.546875 0.421875 Z M 11.546875 0.421875 "/></g></g></g></svg>